<svg width="357" height="251" viewBox="0 0 357 251" fill="none" xmlns="http://www.w3.org/2000/svg">
<path d="M305.43 206.091L338.108 209.176L305.43 212.261V206.091Z" fill="#FFB149"/>
<path d="M309.168 212.56L341.846 215.646L309.168 218.731V212.56Z" fill="#FFB149"/>
<path d="M312.906 219.03L345.584 222.115L312.906 225.201V219.03Z" fill="#FFB149"/>
<path d="M316.641 225.5L349.319 228.585L316.641 231.67V225.5Z" fill="#FFB149"/>
<path d="M320.379 231.968L353.057 235.053L320.379 238.138V231.968Z" fill="#FFB149"/>
<path d="M324.117 238.437L356.795 241.523L324.117 244.608V238.437Z" fill="#FFB149"/>
<path d="M51.3657 212.261L18.6875 209.176L51.3657 206.091V212.261Z" fill="#FFB149"/>
<path d="M47.6274 218.731L14.9492 215.646L47.6274 212.56V218.731Z" fill="#FFB149"/>
<path d="M43.8891 225.201L11.2109 222.115L43.8891 219.03V225.201Z" fill="#FFB149"/>
<path d="M40.1548 231.67L7.47656 228.585L40.1548 225.5V231.67Z" fill="#FFB149"/>
<path d="M36.4165 238.138L3.73828 235.053L36.4165 231.968V238.138Z" fill="#FFB149"/>
<path d="M32.6782 244.608L0 241.523L32.6782 238.437V244.608Z" fill="#FFB149"/>
<path d="M346.534 245.783H12.4688L42.1691 204.763H316.834L346.534 245.783Z" fill="#FFB149"/>
<path d="M331.053 246.354H27.9453L52.1312 204.192H306.868L331.053 246.354ZM29.9199 245.211H329.081L306.207 205.334H52.7939L29.9199 245.211Z" fill="white"/>
<path d="M324.385 246.066L301.015 205.334H57.9845L34.6146 246.066L33.625 245.497L57.3241 204.192H301.678L301.843 204.479L325.377 245.497L324.385 246.066Z" fill="white"/>
<path d="M346.534 244.983H12.4688V246.582H346.534V244.983Z" fill="#000061"/>
<path d="M149.351 165.151C149.351 165.151 135.267 165.151 134.167 159.428C133.068 153.706 155.954 153.928 156.395 153.928C156.836 153.928 149.353 165.151 149.353 165.151H149.351Z" fill="#000061"/>
<path d="M238.701 129.941C238.701 129.941 239.825 132.55 235.631 136.308C231.438 140.065 230.777 129.28 230.777 129.28C230.777 129.28 235.839 126.86 238.701 129.941Z" fill="#000061"/>
<path d="M119.863 132.58C119.863 132.58 119.863 136.321 124.265 136.762C128.666 137.203 124.706 131.7 124.706 131.7C124.706 131.7 120.745 131.481 119.863 132.58Z" fill="#000061"/>
<path d="M295.984 165.219L294.188 165.556L297.489 183.161L299.286 182.824L295.984 165.219Z" fill="#FFB149"/>
<path d="M305.185 143.703L299.68 184.635L301.492 184.879L306.997 143.947L305.185 143.703Z" fill="#FFB149"/>
<path d="M208.77 172.853L205.248 179.674C205.248 179.674 135.266 180.774 141.427 174.393C142.922 172.846 144.078 170.869 144.974 168.766C147.776 162.196 148.03 154.366 148.03 154.366C148.03 154.366 204.807 133.679 203.266 149.965C202.508 157.991 203.831 163.665 205.376 167.356C206.957 171.152 208.77 172.853 208.77 172.853Z" fill="#FFB2A8"/>
<path d="M179.429 241.66L61.1875 226.725L180.147 211L298.386 225.934L179.429 241.66Z" fill="white"/>
<path d="M208.77 172.852L205.248 179.674C205.248 179.674 135.266 180.774 141.427 174.393C142.922 172.846 144.078 170.869 144.974 168.766C153.272 171.863 181.172 180.495 205.374 167.359C206.955 171.154 208.767 172.855 208.767 172.855L208.77 172.852Z" fill="#000061"/>
<path d="M170.253 177.078C166.939 176.498 163.644 175.808 160.293 175.346C153.769 174.45 147.265 173.038 140.804 171.737C137.636 171.1 134.471 170.444 131.311 169.772C107.543 164.71 90.8188 168.673 80.2537 186.496C69.6908 204.322 128.008 241.294 190.289 248.776C190.289 248.776 196.052 239.196 201.114 218.071L205.253 221.928L219.998 232.71L262.574 217.463C266.823 215.941 270.61 213.328 273.468 209.839C279.246 202.786 285.247 189.984 272.374 174.393C263.875 164.1 248.355 163.771 236.183 164.986C223.013 166.303 210.05 169.847 197.595 174.24C191.6 176.354 186.452 178.235 179.966 178.141C176.666 178.093 173.45 177.636 170.253 177.076V177.078Z" fill="#00CCBE"/>
<path d="M152.432 25.4064C152.432 25.4064 145.61 18.1435 153.973 9.78145C155.668 8.08572 158.637 7.93718 160.861 8.04002C163.852 8.17942 166.835 8.95873 169.837 8.78961C171.387 8.70277 172.884 8.35311 174.25 7.60352C175.736 6.78765 176.547 5.35473 177.907 4.47259C178.325 4.20063 178.798 4.02237 179.29 3.9401C182.814 3.33905 186.057 4.47487 188.507 6.94991C190.762 9.23068 192.174 10.09 195.6 9.59634C197.444 9.32895 199.273 8.81932 201.135 8.86503C205.544 8.97244 209.833 12.4485 211.061 16.6581C213.314 24.3803 206.563 27.7397 203.487 33.5491C201.684 36.9565 201.094 41.1524 202.116 44.8936C203.156 48.7078 205.763 51.921 205.978 56.0003C206.316 62.3925 199.7 69.2279 193.143 68.2704C190.312 67.8567 187.405 66.4307 185.22 64.5795L161.233 63.4803C161.233 63.4803 153.054 69.8427 142.146 62.5776C137.379 59.4032 137.1 52.4283 141.709 49.03C142.267 48.6187 142.902 48.2256 143.625 47.8531C150.062 44.553 145.606 41.0039 142.975 39.4361C141.152 38.3506 139.817 36.5726 139.415 34.4884C138.985 32.2739 139.479 29.4834 142.966 26.9467C142.966 26.9467 145.608 24.3048 152.43 25.4064H152.432Z" fill="#000061"/>
<path d="M153.589 45.0444C153.589 45.0444 151.535 41.7261 148.815 44.0503C146.098 46.3745 153.416 57.0608 156.762 54.9697C160.107 52.8786 153.589 45.0444 153.589 45.0444Z" fill="#FFB2A8"/>
<path d="M190.636 45.4627C190.636 45.4627 193.145 41.5136 195.444 42.9076C197.743 44.3017 193.936 54.4235 189.567 55.7513C185.197 57.0814 190.634 45.4627 190.634 45.4627H190.636Z" fill="#FFB2A8"/>
<path d="M138.789 94.9496C138.789 94.9496 147.592 83.7262 171.579 82.6247C195.566 81.5254 212.512 93.4092 219.994 103.75C227.477 114.094 179.503 122.897 179.503 122.897L138.789 94.9473V94.9496Z" fill="#FFB2A8"/>
<path d="M189.625 85.2642L186.544 93.1875C186.544 93.1875 157.276 95.1689 161.678 86.3658C163.727 82.2681 164.87 77.9762 165.505 74.5642C166.237 70.6448 166.301 67.8796 166.301 67.8796C166.301 67.8796 172.661 60.811 177.547 59.1038C179.437 58.4434 181.105 58.5851 182.099 60.2442C182.593 61.0669 182.918 62.2622 183.025 63.9191C183.254 67.4545 183.763 70.4734 184.394 73.0056C186.199 80.257 189.627 85.2665 189.627 85.2665L189.625 85.2642Z" fill="#FFB2A8"/>
<path d="M173.793 158.61L178.197 157.029H184.466V163.451L180.174 165.094L175.1 162.962L173.793 158.61Z" fill="#000061"/>
<path d="M184.392 73.0057C177.671 80.625 169.531 77.1193 165.504 74.5643C166.235 70.6449 166.299 67.8796 166.299 67.8796C166.299 67.8796 172.659 60.811 177.545 59.1039C179.161 59.2639 180.717 59.6569 182.098 60.2443C182.591 61.067 182.916 62.2622 183.023 63.9191C183.252 67.4545 183.762 70.4735 184.392 73.0057Z" fill="#000061"/>
<path d="M152.873 30.0274C152.873 30.0274 147.372 73.1611 172.239 72.72C197.106 72.2789 192.046 30.0274 192.046 30.0274L177.301 23.8661L152.873 30.0274Z" fill="#FFB2A8"/>
<path d="M151.994 29.808C152.702 33.348 154.432 36.4835 154.634 36.8789C158.612 44.6445 169.125 49.0872 176.936 44.2057C178.639 43.1407 180.092 41.6849 181.18 39.9984C182.14 38.5083 182.403 36.7143 183.235 35.158C183.811 34.0793 184.613 33.0897 185.673 32.4796C188.692 30.745 193.206 32.1116 194.908 35.0894C198.43 41.2507 198.43 27.1661 198.43 27.1661L176.422 16.8226C176.422 16.8226 151.555 27.6049 151.994 29.8057V29.808Z" fill="#000061"/>
<path d="M216.106 138.444L216.782 140.426L219.997 149.839L209.487 152.284L186.327 157.669C186.327 157.669 159.401 152.019 134.754 160.822L137.032 138.083C137.032 138.083 133.291 133.021 119.867 132.582C119.867 132.582 131.31 109.475 138.792 94.9496C138.792 94.9496 178.404 127.959 219.997 103.753L238.703 129.941C238.703 129.941 229.751 127.884 216.106 138.447V138.444Z" fill="#FF5776"/>
<path d="M186.677 113.143C178.724 113.143 170.672 111.726 162.71 108.922C147.972 103.732 138.504 95.4592 138.41 95.3769L139.167 94.5199C139.258 94.6022 148.589 102.747 163.131 107.859C171.655 110.856 180.28 112.238 188.763 111.969C199.363 111.63 209.777 108.698 219.721 103.252L220.269 104.253C210.159 109.791 199.562 112.771 188.772 113.111C188.075 113.134 187.376 113.143 186.679 113.143H186.677Z" fill="white"/>
<path d="M219.995 149.839L209.484 152.284V127.235L215.063 140.636L217.092 141.18L219.995 149.839Z" fill="#000061"/>
<path d="M123.382 132.58C123.382 132.58 115.02 156.348 126.024 163.169C126.024 163.169 131.966 166.031 143.849 153.486C155.733 140.942 157.897 132.69 157.897 132.69L162.128 128.731C163.106 127.954 163.734 126.823 163.878 125.582L164.536 119.819C164.536 119.819 163.657 112.997 164.095 110.577L162.073 108.495L161.972 103.46C161.929 102.882 161.447 102.434 160.866 102.434C160.423 102.434 160.021 102.699 159.847 103.106L158.814 105.515L157.054 103.755L156.771 100.631C156.689 99.7167 155.825 99.0837 154.929 99.2756C154.035 99.4676 153.258 100.009 152.767 100.777L151.992 101.995L151.958 101.949C151.592 101.46 150.936 101.291 150.379 101.538C149.67 101.853 149.174 102.512 149.065 103.28L148.029 110.579L146.93 118.061C146.93 118.061 145.415 124.554 149.131 129.945L137.028 138.088C137.028 138.088 134.166 134.127 123.384 132.587L123.382 132.58Z" fill="#FFB2A8"/>
<path d="M237.159 158.11C230.337 161.631 202.828 164.052 193.365 161.851L182.681 168.014C182.187 168.298 181.616 168.414 181.049 168.346L176.419 167.79L171.693 166.844H171.686L168.176 166.143C167.159 165.937 166.345 165.178 166.071 164.177L165.856 163.389L164.535 162.29C164.91 161.419 165.767 160.857 166.706 160.857C166.759 160.857 166.814 160.857 166.866 160.861L171.766 161.188H171.796L173.117 155.029C173.117 155.029 176.417 155.47 176.417 161.19L180.158 162.29L182.139 162.07L182.58 158.77C182.58 158.77 178.026 160.349 176.419 156.183L185.222 153.489L194.93 155.372L223.954 146.226L218.012 137.423C218.012 137.423 220.791 133.766 232.716 129.872L241.778 147.986C241.778 147.986 243.978 154.588 237.157 158.11H237.159Z" fill="#FFB2A8"/>
<path d="M158.785 105.499C159.087 104.649 159.398 103.824 159.715 102.964C159.816 102.731 159.971 102.514 160.207 102.361C160.442 102.208 160.746 102.167 161.007 102.217C161.272 102.263 161.502 102.372 161.713 102.496C161.765 102.53 161.813 102.558 161.87 102.596C161.928 102.637 161.982 102.683 162.03 102.731C162.129 102.829 162.213 102.935 162.282 103.047C162.551 103.497 162.661 103.974 162.732 104.443C162.796 104.911 162.791 105.38 162.748 105.837C162.705 106.296 162.631 106.747 162.526 107.192C162.421 107.636 162.293 108.074 162.11 108.497L162.044 108.483C162.039 107.574 162.083 106.685 162.078 105.81C162.076 105.373 162.069 104.939 162.042 104.516C162.014 104.098 161.959 103.67 161.788 103.335C161.745 103.252 161.697 103.175 161.64 103.111C161.612 103.079 161.582 103.049 161.55 103.021C161.518 102.994 161.47 102.962 161.432 102.93C161.267 102.813 161.091 102.715 160.915 102.669C160.739 102.621 160.568 102.633 160.415 102.713C160.261 102.793 160.127 102.941 160.038 103.113C159.651 103.901 159.251 104.726 158.849 105.526L158.785 105.499Z" fill="white"/>
<path d="M176.421 167.541L174.991 167.413L171.693 166.847H171.686L168.176 166.145C167.159 165.939 166.345 165.181 166.071 164.18L165.856 163.391L164.535 162.292C164.91 161.421 165.767 160.859 166.706 160.859C166.759 160.859 166.814 160.859 166.866 160.864L171.766 161.19L171.531 162.71L174.554 165.247L176.419 167.541H176.421Z" fill="#000061"/>
<path d="M181.109 131.781L180.808 131.427C170.709 119.518 165.046 107.371 162.075 99.2785C158.852 90.5028 158.009 84.4558 158 84.3964L158.679 84.3049C158.688 84.3644 159.524 90.3543 162.724 99.0637C165.644 107.014 171.182 118.905 181.011 130.608C182.282 128.257 188.391 115.523 191.627 83L192.308 83.0686C190.415 102.099 187.545 114.209 185.472 121.014C183.217 128.419 181.432 131.271 181.356 131.39L181.107 131.783L181.109 131.781Z" fill="#000061"/>
<path d="M202.194 228.35C200.772 233.837 196.942 246.068 190.504 248.779C190.504 248.779 187.86 236.189 188.559 222.993C188.822 218.038 189.556 212.997 191.082 208.506C191.802 206.381 192.7 204.377 193.806 202.564C193.806 202.564 196.668 203.851 199.165 208.506C200.811 211.566 202.301 216.082 202.717 222.65C202.721 222.723 202.726 222.797 202.731 222.87C202.843 224.714 202.657 226.563 202.194 228.352V228.35Z" fill="#000061"/>
<path d="M227.699 239.975L226.6 241.957C226.6 241.957 228.581 246.799 226.38 248.779C224.18 250.76 222.198 250.538 222.198 250.538L217.797 239.096C217.797 239.096 210.758 226.163 204.155 222.614L202.72 222.648L188.562 222.991C188.825 218.036 189.559 212.995 191.086 208.504H202.832C202.832 208.504 205.52 204.898 209.787 205.16C214.056 205.423 218.016 208.063 218.016 215.767C218.016 223.471 224.177 227.651 224.177 227.651C224.177 227.651 231.879 232.052 227.699 239.975Z" fill="#FFB2A8"/>
<path d="M304.964 179.695H294.513L287.127 207.983C286.94 208.703 287.481 209.404 288.224 209.404H311.256C311.999 209.404 312.54 208.703 312.353 207.983L304.967 179.695H304.964Z" fill="#FF5776"/>
<path d="M220.872 141.603C220.872 141.603 218.452 142.482 215.371 141.383C215.371 141.383 216.692 138.303 218.013 137.423L220.874 141.605L220.872 141.603Z" fill="#000061"/>
<path d="M176.491 97.7583L176.306 97.692C166.408 94.1726 159.479 83.7971 159.41 83.6943L159.981 83.3172C160.048 83.42 166.771 93.4779 176.351 96.9813C177.643 95.8798 186.878 87.849 189.083 81.6306L189.73 81.8592C188.708 84.7341 186.194 88.265 182.254 92.3535C179.332 95.3861 176.669 97.6121 176.644 97.6326L176.493 97.7583H176.491Z" fill="#000061"/>
<path d="M176.2 101.771C177.294 101.771 178.182 100.737 178.182 99.4608C178.182 98.1847 177.294 97.1503 176.2 97.1503C175.106 97.1503 174.219 98.1847 174.219 99.4608C174.219 100.737 175.106 101.771 176.2 101.771Z" fill="#FF5776"/>
<path d="M177.08 97.3699C177.08 97.8566 176.687 98.2497 176.2 98.2497C175.713 98.2497 175.32 97.8566 175.32 97.3699C175.32 96.8831 175.713 96.49 176.2 96.49C176.687 96.49 177.08 96.8831 177.08 97.3699Z" fill="#000061"/>
<path d="M180.36 131.963C180.36 132.557 179.878 133.04 179.283 133.04C178.689 133.04 178.207 132.557 178.207 131.963C178.207 131.369 178.689 130.887 179.283 130.887C179.878 130.887 180.36 131.369 180.36 131.963Z" fill="#000061"/>
<path d="M183.171 136.995C183.171 137.35 182.883 137.638 182.529 137.638C182.175 137.638 181.887 137.35 181.887 136.995C181.887 136.641 182.175 136.353 182.529 136.353C182.883 136.353 183.171 136.641 183.171 136.995Z" fill="#000061"/>
<path d="M177.946 135.151C177.811 135.117 177.688 135.005 177.619 134.868C177.546 134.731 177.521 134.571 177.534 134.411C177.541 134.331 177.56 134.248 177.592 134.168C177.624 134.086 177.669 134.008 177.715 133.944C177.811 133.81 177.934 133.7 178.062 133.615C178.19 133.531 178.325 133.469 178.458 133.421C178.59 133.378 178.716 133.339 178.871 133.321C179.022 133.302 179.191 133.295 179.386 133.343C179.575 133.385 179.808 133.501 179.968 133.695C180.135 133.89 180.211 134.123 180.229 134.312C180.252 134.504 180.229 134.671 180.192 134.822C180.117 135.11 179.975 135.371 179.79 135.578C179.415 136.001 178.917 136.228 178.442 136.353L178.339 135.917C178.721 135.901 179.1 135.846 179.525 135.878C179.738 135.896 179.966 135.94 180.19 136.058C180.409 136.175 180.617 136.365 180.75 136.591C181.022 137.05 181.049 137.551 180.981 138.003C180.944 138.236 180.873 138.499 180.713 138.762C180.549 139.023 180.295 139.253 180.021 139.379C179.466 139.637 178.929 139.603 178.467 139.473C177.989 139.326 177.66 139.107 177.356 138.915C177.052 138.721 176.808 138.556 176.513 138.444C176.211 138.325 175.857 138.268 175.466 138.22L175.43 138.088C175.754 137.846 176.145 137.686 176.584 137.631C177.032 137.578 177.491 137.683 177.861 137.795C178.234 137.907 178.57 138.031 178.814 138.067C179.068 138.108 179.315 138.104 179.445 138.067C179.514 138.049 179.555 138.031 179.607 137.992C179.658 137.948 179.717 137.855 179.76 137.729C179.85 137.462 179.911 137.185 179.898 136.95C179.891 136.833 179.861 136.721 179.781 136.616C179.708 136.509 179.578 136.426 179.429 136.371C179.123 136.264 178.75 136.285 178.401 136.365C178.282 136.392 178.163 136.317 178.136 136.198C178.113 136.095 178.165 135.99 178.259 135.949L178.298 135.93C178.652 135.766 178.869 135.4 178.945 135.071C178.988 134.907 179.002 134.749 179.011 134.607C179.015 134.541 179.009 134.486 179.006 134.461C179.002 134.434 179.004 134.45 179.029 134.475C179.052 134.5 179.084 134.5 179.063 134.484C179.047 134.47 178.993 134.452 178.926 134.443C178.862 134.436 178.771 134.431 178.689 134.436C178.606 134.436 178.531 134.443 178.462 134.454C178.394 134.463 178.332 134.479 178.273 134.5C178.243 134.514 178.218 134.52 178.195 134.534C178.17 134.548 178.145 134.568 178.122 134.591C178.03 134.694 177.946 134.852 178.026 135.046L177.944 135.156L177.946 135.151Z" fill="#000061"/>
<path d="M179.574 135.711C179.928 135.418 180.148 135.16 180.306 134.916C180.383 134.795 180.436 134.68 180.472 134.577C180.502 134.47 180.529 134.395 180.575 134.278C180.614 134.152 180.66 133.958 180.689 133.741C180.724 133.524 180.744 133.289 180.792 133.051C180.82 132.932 180.854 132.813 180.902 132.701C180.952 132.589 181.012 132.486 181.078 132.388C181.211 132.196 181.368 132.002 181.569 131.842C181.768 131.677 182.01 131.549 182.278 131.488C182.547 131.428 182.838 131.442 183.123 131.524C183.702 131.684 184.188 132.114 184.396 132.667C184.501 132.943 184.54 133.247 184.501 133.547C184.465 133.846 184.348 134.12 184.188 134.342C183.868 134.785 183.338 135.046 182.858 134.961L182.815 134.831C183.091 134.486 183.19 134.159 183.208 133.88C183.219 133.597 183.149 133.421 183.046 133.234C182.947 133.053 182.835 132.859 182.662 132.735C182.575 132.672 182.461 132.633 182.333 132.589C182.205 132.553 182.049 132.514 181.887 132.523C181.562 132.518 181.206 132.781 181.231 133.101C181.236 133.263 181.323 133.426 181.432 133.599C181.535 133.773 181.668 133.972 181.72 134.246C181.773 134.527 181.72 134.854 181.574 135.105C181.439 135.364 181.238 135.567 181.019 135.713C180.58 135.999 180.029 136.074 179.588 135.848L179.577 135.711H179.574Z" fill="#000061"/>
<path d="M174.798 49.9007C175.097 50.5749 175.383 51.2536 175.671 51.9301C175.959 52.6066 176.249 53.2853 176.528 53.9664C176.813 54.6451 177.085 55.3284 177.362 56.0117C177.631 56.6951 177.929 57.3715 178.219 58.048C178.328 58.3017 178.221 58.5942 177.981 58.7222L177.915 58.7564C177.161 59.1587 176.363 59.4718 175.554 59.7483C175.15 59.8877 174.736 60.0111 174.32 60.1254C173.902 60.2374 173.479 60.3379 173.04 60.4042L172.992 60.2991C173.33 60.0134 173.685 59.7597 174.043 59.5198C174.405 59.2821 174.768 59.0513 175.14 58.8387C175.883 58.4114 176.644 58.0206 177.444 57.7166L177.142 58.4274C176.941 57.7189 176.749 57.0059 176.53 56.3043C176.315 55.6004 176.1 54.8965 175.895 54.1903C175.684 53.4841 175.483 52.7757 175.284 52.0672C175.083 51.3588 174.88 50.6503 174.69 49.9373L174.798 49.8984V49.9007Z" fill="#000061"/>
<path d="M179.083 46.9686C179.714 47.2932 180.381 47.54 181.06 47.6794L181.567 47.7731L182.077 47.8279C182.418 47.8485 182.753 47.8668 183.087 47.8325C183.761 47.7868 184.378 47.5491 185.018 47.4143C185.347 47.3617 185.663 47.2566 186.008 47.1903C186.184 47.1629 186.348 47.1035 186.524 47.0646C186.703 47.0258 186.883 46.9846 187.084 46.9641L187.148 47.0578C187.043 47.2223 186.917 47.3663 186.789 47.5126C186.655 47.6497 186.529 47.8051 186.369 47.9102C186.06 48.1365 185.738 48.365 185.373 48.4975C185.192 48.5661 185.014 48.6529 184.819 48.6849C184.627 48.7215 184.433 48.7489 184.241 48.7695C184.047 48.7878 183.85 48.7695 183.656 48.7718L183.366 48.7672L183.078 48.7421C182.694 48.7238 182.319 48.6484 181.949 48.573L181.405 48.4153L180.879 48.2187L180.377 47.9788C180.214 47.8874 180.05 47.8051 179.895 47.7045C179.579 47.5148 179.282 47.3 179.008 47.0532L179.076 46.9618L179.083 46.9686Z" fill="#000061"/>
<path d="M159.215 47.4349C159.97 47.572 160.625 47.7388 161.281 47.8737C161.446 47.9034 161.606 47.9399 161.766 47.9856C161.926 48.0199 162.086 48.0633 162.243 48.1113C162.563 48.1936 162.89 48.2827 163.224 48.301C163.889 48.3513 164.575 48.3193 165.244 48.1548C165.589 48.1022 165.911 47.9719 166.247 47.8622C166.419 47.8142 166.57 47.7228 166.732 47.652L167.221 47.4303L167.285 47.524C166.997 47.7411 166.718 47.9856 166.403 48.1753C166.085 48.3581 165.77 48.5638 165.42 48.6964C165.246 48.7627 165.077 48.8541 164.894 48.8998L164.348 49.0575C164.165 49.1077 163.976 49.1215 163.786 49.1557C163.692 49.1694 163.596 49.1854 163.503 49.1969L163.217 49.2129C162.833 49.2426 162.449 49.2403 162.058 49.2266C161.866 49.206 161.674 49.1786 161.482 49.142C161.295 49.0917 161.112 49.03 160.932 48.9615C160.756 48.8815 160.582 48.7969 160.413 48.7032C160.248 48.6004 160.084 48.5021 159.933 48.381C159.629 48.1433 159.35 47.8714 159.145 47.524L159.213 47.4326L159.215 47.4349Z" fill="#000061"/>
<path d="M154.52 29.2274C153.524 28.8755 152.509 28.4801 151.501 27.9888C150.496 27.4906 149.497 26.8941 148.567 26.1354C147.644 25.3675 146.798 24.4259 146.177 23.3381L145.96 22.9222C145.886 22.7828 145.816 22.6434 145.763 22.5085C145.653 22.2366 145.525 21.9669 145.436 21.6904C145.347 21.4138 145.242 21.1419 145.171 20.8631C145.103 20.5843 145.02 20.3077 144.965 20.0289C144.492 17.7984 144.563 15.5291 145.125 13.3694C145.411 12.2907 145.829 11.2395 146.407 10.2636L146.625 9.90025L146.871 9.55059L147.12 9.20321L147.39 8.87412C147.758 8.44676 148.151 8.04226 148.576 7.68346C150.272 6.23455 152.304 5.3524 154.367 4.90904C156.461 4.45654 158.566 4.55482 160.567 4.79706C162.574 5.03702 164.533 5.43696 166.489 5.59008C167.467 5.65178 168.452 5.62436 169.419 5.44382C170.381 5.25642 171.322 4.89762 172.136 4.31714C171.382 4.97303 170.456 5.43467 169.485 5.72263C168.509 6.00373 167.492 6.13171 166.477 6.1637C164.446 6.20027 162.451 5.98316 160.481 5.93974C158.518 5.88717 156.573 5.99916 154.797 6.57049C153.014 7.13497 151.36 8.07882 150.135 9.35633C149.826 9.67171 149.554 10.0168 149.305 10.3687L149.125 10.6361L148.965 10.9149L148.805 11.1915L148.668 11.4863C148.302 12.2656 148.053 13.1134 147.911 13.9819C147.63 15.7165 147.758 17.5447 148.279 19.1765C148.341 19.3822 148.423 19.5764 148.492 19.7775C148.563 19.9763 148.661 20.1615 148.741 20.3534C148.821 20.5454 148.933 20.7168 149.024 20.8996C149.07 20.9933 149.122 21.071 149.175 21.1487L149.326 21.3841C149.762 21.9875 150.322 22.5039 150.978 22.9519C151.645 23.3907 152.404 23.7586 153.22 24.0671C154.043 24.3734 154.918 24.6247 155.828 24.851L154.514 29.2297L154.52 29.2274Z" fill="#000061"/>
<path d="M168.094 9.42499C168.686 9.43413 169.216 9.39071 169.6 9.29472C169.696 9.27187 169.78 9.24445 169.858 9.21931C169.892 9.2056 169.933 9.19417 169.963 9.17817C169.979 9.16903 169.993 9.16674 170.013 9.15532L170.091 9.10504C170.196 9.03876 170.304 8.97249 170.411 8.90621L170.722 8.66397C171.133 8.32117 171.538 7.89381 171.929 7.39331C172.319 6.88597 172.706 6.3192 173.103 5.72044C173.503 5.11939 173.931 4.48635 174.406 3.85788C174.879 3.22941 175.441 2.60551 176.074 2.04788C177.343 0.91892 179.018 0.169326 180.684 0.0344901C182.352 -0.114058 183.959 0.228745 185.38 0.841218C186.093 1.14745 186.774 1.50625 187.405 1.93362C187.72 2.14615 188.031 2.36783 188.324 2.59865C188.616 2.82947 188.897 3.06486 189.174 3.29797C190.275 4.23496 191.32 5.17195 192.593 5.72272C193.861 6.26892 195.331 6.4289 196.741 6.14094C195.381 6.61401 193.847 6.66886 192.403 6.26207C190.947 5.8507 189.688 4.98456 188.493 4.21439C188.193 4.02014 187.894 3.83274 187.595 3.65448C187.295 3.47623 186.996 3.32082 186.692 3.1677C186.084 2.86375 185.449 2.63293 184.809 2.45467C183.531 2.0913 182.208 2.02046 181.029 2.29241C180.437 2.42039 179.888 2.65579 179.395 2.96202C178.901 3.27054 178.453 3.6362 178.072 4.09327C177.288 4.98227 176.707 6.1478 176.076 7.43216C175.759 8.07892 175.423 8.75538 175.023 9.44784C174.618 10.1426 174.129 10.851 173.524 11.5207L173.046 12.012L172.511 12.4691L172.376 12.5811L172.203 12.7067C172.084 12.7913 171.965 12.8622 171.844 12.9376C171.604 13.077 171.36 13.2004 171.12 13.3032C170.155 13.7123 169.246 13.8768 168.407 13.9843L168.098 9.42499H168.094Z" fill="#000061"/>
<path d="M157.513 32.379C157.973 34.5707 159.127 36.6161 160.777 38.1792C162.422 39.7493 164.532 40.8394 166.778 41.3262C167.903 41.5753 169.064 41.6553 170.218 41.5935C171.372 41.5136 172.519 41.2896 173.614 40.8942C174.708 40.4989 175.753 39.955 176.71 39.2831C177.666 38.6066 178.536 37.8067 179.288 36.9017C178.573 37.8364 177.732 38.6774 176.795 39.3996C175.856 40.1172 174.818 40.7137 173.717 41.1616C172.615 41.6118 171.443 41.8906 170.254 42.0209C169.064 42.1352 167.855 42.0986 166.671 41.8884C164.303 41.4747 162.032 40.4235 160.199 38.8123C158.364 37.2103 157.004 35.0346 156.401 32.6373C156.323 32.3287 156.508 32.0202 156.814 31.9425C157.12 31.8648 157.431 32.0499 157.509 32.3562C157.509 32.363 157.513 32.3722 157.513 32.379Z" fill="#FFB149"/>
<path d="M161.715 34.5844C162.176 35.4985 162.803 36.2435 163.557 36.8354C164.297 37.4365 165.147 37.889 166.036 38.1906C166.482 38.3369 166.937 38.4397 167.399 38.4923C167.862 38.5403 168.331 38.538 168.802 38.4809C169.748 38.3757 170.68 38.0398 171.631 37.6604C170.888 38.3597 169.976 38.9151 168.937 39.187C168.42 39.3264 167.876 39.3767 167.337 39.3584C166.793 39.331 166.258 39.2259 165.748 39.0591C164.732 38.714 163.801 38.1358 163.072 37.3611C162.341 36.6 161.806 35.6105 161.717 34.5844H161.715Z" fill="#FFB149"/>
<path d="M193.804 202.562C193.804 202.562 151.516 186.615 122.398 179.747C122.398 179.747 155.159 181.551 177 188.637C177 188.637 214.128 168.25 254.642 170.012C254.642 170.012 219.174 170.195 180.263 196.945L193.804 202.564V202.562Z" fill="#000061"/>
<path d="M299.694 146.959C298.618 146.573 297.594 146.027 296.639 145.373C296.156 145.051 295.702 144.688 295.27 144.295C294.831 143.909 294.431 143.474 294.052 143.02C293.32 142.092 292.715 141.027 292.388 139.854C292.054 138.684 292.006 137.434 292.182 136.234C292.356 135.03 292.749 133.878 293.261 132.799L293.672 132.006C293.805 131.739 293.974 131.497 294.125 131.241C294.424 130.727 294.781 130.26 295.117 129.776C295.8 128.85 296.499 127.957 297.183 127.047C297.873 126.144 298.561 125.244 299.223 124.33C299.893 123.423 300.542 122.506 301.132 121.565C301.728 120.628 302.268 119.668 302.702 118.674C303.138 117.682 303.451 116.651 303.602 115.6C303.751 114.546 303.73 113.47 303.556 112.4C303.385 111.329 303.051 110.277 302.654 109.24C302.462 108.719 302.226 108.211 301.996 107.702C301.877 107.448 301.746 107.199 301.621 106.948L301.431 106.57L301.228 106.2C300.167 104.207 298.922 102.299 297.663 100.393C299.203 102.082 300.629 103.878 301.904 105.798C303.159 107.725 304.258 109.823 304.781 112.165C305.042 113.331 305.131 114.558 305.001 115.767C304.882 116.978 304.546 118.155 304.098 119.261C303.184 121.476 301.865 123.418 300.512 125.274C299.15 127.127 297.715 128.907 296.319 130.69C295.994 131.133 295.645 131.563 295.359 132.027C295.215 132.258 295.048 132.479 294.918 132.717L294.513 133.426C294.02 134.39 293.617 135.396 293.405 136.438C293.19 137.48 293.19 138.554 293.398 139.598C293.604 140.645 294.075 141.639 294.678 142.551C295.288 143.463 296.054 144.286 296.906 145.019C297.331 145.387 297.777 145.735 298.243 146.057C298.707 146.384 299.189 146.683 299.692 146.955L299.694 146.959Z" fill="#000061"/>
<path d="M300.587 142.243C300.055 142.103 299.566 141.827 299.12 141.491C298.674 141.153 298.284 140.73 297.959 140.25C297.637 139.77 297.392 139.221 297.248 138.645C297.102 138.07 297.063 137.469 297.107 136.881C297.193 135.7 297.657 134.616 298.263 133.695C298.885 132.779 299.664 132.004 300.589 131.428C300.176 132.438 299.721 133.355 299.376 134.28C299.035 135.201 298.766 136.111 298.702 137.009C298.629 137.905 298.738 138.792 299.07 139.665C299.397 140.542 299.918 141.392 300.589 142.243H300.587Z" fill="#000061"/>
<path d="M309.716 182.78H291.156V183.923H309.716V182.78Z" fill="white"/>
<path d="M309.716 186.005H291.156V187.147H309.716V186.005Z" fill="white"/>
<path d="M154.666 122.065C154.666 122.065 155.969 119.478 158.963 118.493C158.963 118.493 157.63 115.525 160.3 112.736C160.3 112.736 156.805 112.746 156.165 110.104L156.225 113.941C156.225 113.941 153.652 113.31 152.031 114.734C152.031 114.734 155.745 117.778 154.664 122.065H154.666Z" fill="#000061"/>
<path d="M185.582 66.2114C185.772 65.8137 185.977 65.4389 186.183 65.0664L186.341 64.7899L186.48 64.5019C186.572 64.3099 186.672 64.1225 186.766 63.9329C186.86 63.7432 186.958 63.5581 187.058 63.373L187.321 62.797C187.495 62.4131 187.701 62.0474 187.849 61.6521C188.016 61.2659 188.19 60.8842 188.363 60.5026C188.523 60.114 188.695 59.7301 188.871 59.3462C189.207 58.5737 189.529 57.7898 189.796 56.9854L190.002 56.3844L190.185 55.7742C190.308 55.3674 190.432 54.9606 190.534 54.5492C190.644 54.1379 190.761 53.7288 190.854 53.3128C190.953 52.8992 191.055 52.4855 191.14 52.0673C191.51 50.4013 191.773 48.7102 191.99 47.0076L192.104 47.0167C192.07 48.7353 191.926 50.4539 191.704 52.1656C191.652 52.5952 191.577 53.0203 191.51 53.4454C191.446 53.8728 191.359 54.2955 191.277 54.7206C191.197 55.1457 191.099 55.5685 190.996 55.989L190.845 56.622L190.674 57.2505C190.459 58.0915 190.194 58.9211 189.926 59.753C189.776 60.162 189.62 60.5711 189.456 60.9756C189.277 61.3756 189.074 61.7641 188.875 62.1526C188.775 62.3468 188.67 62.5388 188.551 62.7239C188.434 62.9113 188.322 63.0987 188.203 63.2815L187.847 63.8323C187.719 64.0106 187.584 64.1842 187.449 64.3556C187.314 64.5271 187.182 64.703 187.045 64.8721L186.837 65.1258L186.61 65.3658C186.302 65.6789 185.998 65.9897 185.673 66.2799L185.584 66.2091L185.582 66.2114Z" fill="white"/>
<path d="M152.974 49.3043C153.211 51.032 153.568 52.7438 154.025 54.4212C154.473 56.1009 155.017 57.751 155.668 59.3484C155.997 60.146 156.37 60.923 156.772 61.6818C157.167 62.4451 157.579 63.1901 157.985 63.942L158.294 64.5042L158.621 65.0572C158.826 65.4343 159.071 65.7863 159.29 66.1565C159.752 66.8832 160.252 67.5871 160.755 68.3207L160.675 68.403C159.199 67.3974 157.99 66.0239 157.007 64.5316C156.523 63.7797 156.093 62.9913 155.75 62.1663C155.41 61.3413 155.09 60.5117 154.811 59.6707C154.525 58.8319 154.269 57.9841 154.041 57.1316C153.822 56.2746 153.632 55.4153 153.467 54.5492C153.307 53.683 153.175 52.8123 153.07 51.9393C152.965 51.0663 152.887 50.1933 152.859 49.3135L152.974 49.3066V49.3043Z" fill="white"/>
<path d="M174.928 45.1723C175.966 44.7541 176.923 44.1599 177.762 43.4355C178.607 42.7179 179.339 41.8746 179.981 40.9764C180.303 40.5285 180.605 40.06 180.877 39.5846C181.149 39.1162 181.377 38.6088 181.604 38.1015C182.052 37.0822 182.467 36.0218 183.027 34.998C183.313 34.4883 183.633 33.9855 184.024 33.5193C184.421 33.0577 184.885 32.6349 185.427 32.3012C185.989 31.9927 186.565 31.771 187.175 31.6545C187.783 31.5471 188.407 31.5059 189.013 31.5814C189.618 31.6522 190.21 31.7848 190.77 31.995C191.33 32.1984 191.865 32.4566 192.363 32.7652C193.364 33.3731 194.237 34.1524 194.948 35.0459L194.87 35.1282C193.942 34.4815 192.994 33.9056 191.993 33.4782C191.869 33.4211 191.744 33.3708 191.616 33.3274C191.49 33.2817 191.364 33.2268 191.239 33.1834C190.983 33.1034 190.731 33.012 190.471 32.9571C190.215 32.8863 189.957 32.8406 189.698 32.7926C189.57 32.7697 189.44 32.7629 189.31 32.7469C189.182 32.7309 189.052 32.7195 188.924 32.7217C188.796 32.7172 188.665 32.708 188.537 32.708L188.156 32.7263C188.028 32.7263 187.902 32.7492 187.776 32.7652C187.651 32.7857 187.523 32.788 187.402 32.8223C187.278 32.852 187.155 32.8771 187.031 32.9023C186.908 32.9297 186.789 32.9777 186.668 33.0143C186.417 33.0783 186.209 33.1948 185.978 33.2885C185.541 33.517 185.141 33.8279 184.778 34.1958C184.424 34.5752 184.108 35.0048 183.816 35.4596C183.247 36.3852 182.783 37.4021 182.275 38.4191C182.017 38.9265 181.757 39.4361 181.439 39.9252C181.128 40.4119 180.792 40.8736 180.436 41.3215C179.711 42.2082 178.9 43.0287 177.981 43.7097C177.072 44.4022 176.046 44.9392 174.965 45.2775L174.926 45.17L174.928 45.1723Z" fill="white"/>
<path d="M208.821 125.502C209.737 127.276 210.594 129.072 211.431 130.877C211.856 131.778 212.258 132.687 212.672 133.592L213.881 136.321C214.276 137.233 214.667 138.147 215.049 139.066L215.332 139.756L215.474 140.101L215.544 140.275L215.579 140.362L215.597 140.405L215.602 140.414L215.595 140.396C215.595 140.396 215.583 140.373 215.576 140.364C215.522 140.268 215.396 140.19 215.291 140.186C215.183 140.177 215.074 140.211 214.989 140.295C214.948 140.337 214.918 140.389 214.902 140.433C214.891 140.474 214.902 140.439 214.907 140.423L214.925 140.371L214.996 140.165C215.046 140.033 215.106 139.905 215.163 139.777L215.357 139.411C215.915 138.474 216.632 137.708 217.393 137.02C218.157 136.333 218.972 135.727 219.804 135.153C221.482 134.027 223.244 133.062 225.04 132.182C226.832 131.298 228.701 130.528 230.632 129.966C231.121 129.844 231.608 129.714 232.097 129.6L233.59 129.358C234.092 129.31 234.597 129.287 235.098 129.25L235.854 129.275C236.106 129.291 236.359 129.275 236.608 129.323L237.358 129.429C237.42 129.438 237.484 129.445 237.545 129.456L237.731 129.502L238.099 129.595L238.466 129.689C238.588 129.721 238.704 129.774 238.823 129.815L239.177 129.947L239.355 130.014C239.413 130.039 239.47 130.068 239.525 130.096C239.749 130.215 239.982 130.311 240.194 130.448C240.404 130.59 240.628 130.706 240.82 130.871L241.117 131.104L241.394 131.362C241.575 131.538 241.744 131.723 241.892 131.933L241.796 131.997C241.65 131.808 241.476 131.629 241.293 131.467L241.015 131.229L240.715 131.017C240.523 130.866 240.297 130.761 240.089 130.633C239.879 130.51 239.646 130.425 239.424 130.32C239.369 130.295 239.312 130.267 239.257 130.247L239.084 130.19L238.736 130.075C238.62 130.039 238.505 129.993 238.386 129.966L238.028 129.888L237.669 129.81L237.491 129.771C237.431 129.762 237.37 129.758 237.308 129.751L236.579 129.675C236.337 129.639 236.09 129.662 235.845 129.655H235.112C234.625 129.712 234.136 129.751 233.651 129.815L232.209 130.103C231.736 130.233 231.265 130.377 230.795 130.512C228.925 131.117 227.124 131.917 225.376 132.845C223.628 133.764 221.921 134.763 220.328 135.903C219.544 136.486 218.778 137.094 218.086 137.761C217.398 138.428 216.779 139.166 216.347 139.959L216.2 140.259C216.161 140.359 216.118 140.46 216.084 140.558L216.038 140.707L216.001 140.823C215.967 140.926 215.901 141.034 215.816 141.118C215.643 141.292 215.405 141.37 215.174 141.347C214.943 141.328 214.703 141.18 214.582 140.976C214.569 140.951 214.555 140.928 214.543 140.903L214.521 140.853L214.502 140.81L214.466 140.723L214.393 140.551L214.246 140.209L213.956 139.521C213.572 138.604 213.202 137.681 212.832 136.758L211.748 133.979C211.399 133.049 211.035 132.121 210.697 131.186C210.007 129.319 209.335 127.445 208.723 125.546L208.828 125.502H208.821Z" fill="white"/>
<path d="M117.574 132.985C118.258 132.644 118.996 132.457 119.736 132.331C120.479 132.198 121.231 132.148 121.983 132.144C122.732 132.148 123.482 132.212 124.218 132.352C124.588 132.409 124.951 132.498 125.315 132.58C125.678 132.662 126.044 132.731 126.403 132.836L127.481 133.117C127.838 133.218 128.19 133.337 128.544 133.444C129.255 133.654 129.938 133.94 130.63 134.194C130.978 134.319 131.309 134.481 131.65 134.628L132.66 135.073C133.323 135.393 133.976 135.732 134.63 136.065L134.582 136.168L132.527 135.398L131.487 135.057C131.14 134.948 130.8 134.82 130.445 134.733C129.744 134.541 129.051 134.321 128.34 134.175C127.989 134.093 127.637 134.004 127.282 133.928L126.217 133.73C125.863 133.659 125.504 133.624 125.148 133.579C124.791 133.535 124.433 133.492 124.074 133.474C123.358 133.412 122.648 133.355 121.937 133.286C120.513 133.161 119.087 133.071 117.611 133.097L117.579 132.987L117.574 132.985Z" fill="#FFE9E9"/>
<path d="M195.578 187.399C196.883 186.645 198.206 185.929 199.536 185.223C200.871 184.528 202.212 183.843 203.565 183.182C206.267 181.852 209.002 180.586 211.768 179.386C214.537 178.196 217.337 177.071 220.168 176.018C223 174.969 225.87 174.018 228.768 173.147C230.215 172.699 231.675 172.304 233.133 171.89C234.6 171.513 236.065 171.111 237.551 170.791C238.294 170.633 239.032 170.448 239.781 170.32C240.531 170.188 241.278 170.046 242.028 169.92L244.293 169.619C245.047 169.516 245.81 169.468 246.569 169.399L247.709 169.313C248.089 169.281 248.473 169.278 248.852 169.262L249.997 169.228C250.379 169.221 250.758 169.191 251.142 169.207L253.432 169.258C254.195 169.276 254.956 169.361 255.717 169.418C258.754 169.701 261.776 170.263 264.637 171.273L264.582 171.495C261.588 171.129 258.617 170.985 255.653 171.022C252.689 171.047 249.734 171.315 246.795 171.671C245.323 171.824 243.861 172.073 242.391 172.27C240.929 172.521 239.459 172.727 237.999 173.008C237.265 173.134 236.532 173.257 235.805 173.412C235.076 173.561 234.344 173.7 233.615 173.858L231.435 174.359C230.709 174.523 229.989 174.727 229.266 174.907C226.38 175.67 223.51 176.511 220.671 177.455C217.826 178.381 215.001 179.38 212.202 180.447C206.596 182.568 201.077 184.944 195.692 187.602L195.583 187.401L195.578 187.399Z" fill="white"/>
<path d="M144.977 168.766C150.084 170.151 155.27 171.173 160.483 171.936C163.093 172.299 165.705 172.626 168.331 172.814C170.954 173.019 173.58 173.143 176.208 173.152C178.836 173.168 181.462 173.056 184.079 172.841C186.698 172.633 189.294 172.235 191.874 171.756L193.801 171.342C194.123 171.28 194.441 171.193 194.756 171.109L195.709 170.862L196.664 170.617C196.98 170.528 197.293 170.425 197.606 170.329C198.232 170.131 198.865 169.95 199.487 169.738C201.98 168.894 204.396 167.836 206.77 166.659C204.524 168.058 202.147 169.264 199.681 170.263C197.201 171.221 194.658 172.034 192.059 172.626C191.413 172.786 190.757 172.9 190.105 173.04L189.125 173.234L188.138 173.387C187.479 173.483 186.824 173.604 186.161 173.682L184.177 173.915C181.526 174.167 178.864 174.29 176.201 174.292C173.541 174.26 170.881 174.132 168.235 173.885C165.588 173.632 162.953 173.28 160.341 172.809C157.727 172.35 155.133 171.781 152.564 171.122C150.002 170.441 147.454 169.701 144.977 168.762V168.766Z" fill="white"/>
<path d="M194.92 155.427C193.291 155.178 191.661 154.912 190.034 154.654L187.593 154.257L185.155 153.847L185.333 153.838L180.968 155.303L178.79 156.051C178.063 156.3 177.332 156.526 176.596 156.743L176.989 156.012C177.017 156.103 177.069 156.249 177.124 156.368C177.179 156.494 177.243 156.615 177.309 156.738C177.371 156.862 177.451 156.976 177.522 157.095C177.606 157.205 177.682 157.319 177.771 157.426C178.127 157.842 178.548 158.215 179.062 158.439C179.185 158.507 179.323 158.542 179.453 158.596C179.519 158.619 179.585 158.651 179.654 158.667L179.864 158.713C180.006 158.736 180.145 158.788 180.292 158.8L180.733 158.839C180.881 158.859 181.032 158.846 181.183 158.843L181.64 158.83L182.565 158.718L182.6 158.827C182.31 158.951 182.012 159.076 181.711 159.188L181.24 159.307C181.082 159.344 180.922 159.394 180.758 159.401C180.104 159.501 179.414 159.444 178.747 159.25L178.258 159.06L177.796 158.807C177.647 158.715 177.51 158.606 177.366 158.5C177.229 158.391 177.108 158.263 176.98 158.144C176.857 158.018 176.749 157.883 176.633 157.751C176.532 157.609 176.422 157.472 176.331 157.323C176.237 157.177 176.15 157.024 176.073 156.866C175.993 156.704 175.927 156.558 175.856 156.354C175.753 156.06 175.911 155.737 176.205 155.637L176.217 155.632L176.249 155.621C176.98 155.39 177.714 155.166 178.456 154.967L180.68 154.369L185.118 153.139L185.136 153.134C185.189 153.121 185.246 153.118 185.296 153.13L187.71 153.662L190.121 154.209C191.727 154.577 193.336 154.94 194.941 155.319L194.918 155.431L194.92 155.427Z" fill="white"/>
<path d="M182.15 162.127L180.178 162.422C180.164 162.422 180.148 162.422 180.134 162.422H180.125L176.348 161.444C176.238 161.417 176.162 161.318 176.16 161.211V161.184L176.128 160.253C176.103 159.945 176.06 159.641 176.028 159.335L175.934 158.887C175.897 158.738 175.881 158.585 175.827 158.446L175.687 158.016C175.646 157.87 175.571 157.742 175.513 157.605C175.267 157.068 174.933 156.576 174.503 156.206C174.391 156.119 174.291 156.019 174.167 155.95L173.991 155.836L173.806 155.74C173.747 155.706 173.681 155.68 173.617 155.655C173.553 155.63 173.491 155.6 173.425 155.584C173.361 155.564 173.297 155.543 173.233 155.53C173.201 155.523 173.169 155.514 173.139 155.509C173.112 155.504 173.073 155.498 173.066 155.498L173.578 155.13L173.214 157.127C173.096 157.794 172.979 158.459 172.842 159.122C172.709 159.785 172.556 160.445 172.396 161.101C172.225 161.757 172.067 162.415 171.884 163.067L171.697 162.573C171.989 162.818 172.289 163.055 172.577 163.307C172.867 163.556 173.16 163.8 173.445 164.056C174.021 164.561 174.586 165.08 175.132 165.624L175.063 165.715C174.38 165.357 173.717 164.973 173.064 164.575C172.734 164.381 172.412 164.173 172.088 163.972C171.761 163.773 171.446 163.558 171.123 163.352C170.975 163.256 170.902 163.085 170.927 162.92L170.936 162.859C171.036 162.189 171.162 161.524 171.276 160.857C171.402 160.192 171.532 159.529 171.685 158.868C171.832 158.208 172.001 157.552 172.168 156.896L172.659 154.926L172.666 154.899C172.723 154.67 172.945 154.526 173.171 154.561C173.242 154.572 173.281 154.581 173.331 154.593C173.381 154.604 173.422 154.618 173.468 154.631C173.559 154.657 173.644 154.689 173.729 154.721C173.815 154.75 173.895 154.789 173.978 154.828C174.06 154.867 174.14 154.903 174.215 154.951L174.446 155.086L174.661 155.242C174.81 155.34 174.931 155.468 175.063 155.584C175.573 156.073 175.934 156.679 176.183 157.305C176.24 157.465 176.316 157.618 176.354 157.781L176.482 158.265C176.533 158.425 176.544 158.59 176.574 158.754L176.649 159.243C176.668 159.57 176.695 159.897 176.704 160.224L176.677 161.197L176.487 160.934L180.192 162.159L180.139 162.155L182.127 162.011L182.141 162.125L182.15 162.127Z" fill="white"/>
<path d="M171.811 166.81L179.556 167.941H179.562L179.583 167.948C179.894 168.024 180.244 168.067 180.577 168.083C180.913 168.097 181.251 168.081 181.58 168.03C181.91 167.985 182.227 167.889 182.529 167.768C182.835 167.651 183.105 167.468 183.361 167.276H183.365C183.365 167.276 183.386 167.258 183.397 167.251L193.126 161.428C193.224 161.371 193.334 161.35 193.437 161.369H193.457C195.085 161.629 196.751 161.787 198.401 161.938C200.055 162.084 201.71 162.217 203.364 162.326C205.021 162.429 206.68 162.472 208.342 162.488C210.003 162.488 211.663 162.415 213.338 162.297L213.358 162.408C211.731 162.829 210.058 163.096 208.378 163.254C207.54 163.32 206.696 163.391 205.853 163.407C205.433 163.419 205.01 163.441 204.589 163.437L203.326 163.43C201.639 163.403 199.957 163.298 198.284 163.106C196.609 162.911 194.954 162.644 193.284 162.333L193.615 162.276L183.704 167.784L183.74 167.759C183.429 167.978 183.1 168.179 182.744 168.305C182.389 168.435 182.024 168.526 181.654 168.563C181.286 168.604 180.915 168.606 180.55 168.577C180.182 168.545 179.83 168.488 179.462 168.382L179.487 168.389L171.797 166.929L171.815 166.817L171.811 166.81Z" fill="white"/>
<path d="M128.049 146.955C128.447 146.034 128.988 145.191 129.573 144.389C129.857 143.977 130.179 143.602 130.488 143.209C130.803 142.825 131.144 142.464 131.473 142.089C131.813 141.728 132.167 141.381 132.524 141.038C132.883 140.695 133.267 140.38 133.641 140.058C134.019 139.736 134.414 139.438 134.802 139.132C135.191 138.826 135.575 138.515 135.977 138.23L137.165 137.347L138.381 136.504C139.183 135.93 140.027 135.419 140.849 134.884C141.684 134.363 142.545 133.883 143.388 133.382C144.248 132.907 145.116 132.448 145.982 131.986L146.039 132.084L143.574 133.682C142.771 134.242 141.956 134.781 141.167 135.357C140.381 135.937 139.579 136.49 138.818 137.103L137.668 138.006L136.548 138.943C136.171 139.251 135.815 139.582 135.454 139.907C135.095 140.236 134.732 140.558 134.391 140.901L133.337 141.902C132.992 142.24 132.631 142.563 132.279 142.896C130.869 144.222 129.475 145.566 128.145 147.012L128.047 146.953L128.049 146.955Z" fill="white"/>
<path d="M164.502 119.819L164.312 117.513L164.132 115.205L163.794 110.588L164.15 110.869C163.606 111.009 163.044 111.246 162.528 111.505C162.004 111.767 161.508 112.078 161.044 112.43C160.809 112.604 160.599 112.805 160.382 113.004C160.276 113.104 160.185 113.221 160.084 113.326L159.934 113.488L159.801 113.664C159.419 114.119 159.152 114.656 158.871 115.205L158.805 115.186C158.919 114.581 159.097 113.964 159.426 113.417C159.737 112.864 160.142 112.352 160.626 111.934C161.099 111.502 161.639 111.146 162.214 110.872C162.795 110.597 163.389 110.403 164.038 110.28H164.045C164.205 110.248 164.36 110.353 164.39 110.513C164.392 110.529 164.395 110.547 164.395 110.563L164.497 115.191L164.539 117.506L164.571 119.821H164.502V119.819Z" fill="white"/>
<path d="M155.908 107.094C155.889 107.798 155.953 108.499 156.093 109.183C156.235 109.861 156.459 110.531 156.824 111.098C157.188 111.665 157.702 112.119 158.317 112.318C158.62 112.423 158.943 112.478 159.27 112.48C159.594 112.494 159.925 112.448 160.25 112.396L160.35 113.075C159.978 113.104 159.605 113.127 159.228 113.081C158.854 113.049 158.476 112.951 158.129 112.8C157.418 112.506 156.868 111.918 156.529 111.276C156.182 110.627 156.013 109.919 155.924 109.215C155.839 108.509 155.832 107.798 155.908 107.098V107.094Z" fill="white"/>
<path d="M163.757 110.129C163.083 109.72 162.471 109.244 161.877 108.751C161.275 108.264 160.734 107.716 160.208 107.149L158.59 105.492C158.049 104.943 157.514 104.386 156.979 103.828L157.052 103.858L155.699 103.785V103.716L157.052 103.643C157.077 103.643 157.1 103.65 157.116 103.666L157.125 103.673C157.713 104.173 158.3 104.676 158.878 105.186L160.624 106.705C161.218 107.199 161.799 107.709 162.32 108.28C162.848 108.845 163.357 109.427 163.803 110.079L163.755 110.129H163.757Z" fill="white"/>
<path d="M152.449 110.33C152.339 109.299 152.248 108.266 152.145 107.233L151.875 104.134L151.727 102.587C151.695 102.315 151.709 101.991 151.789 101.705C151.83 101.559 151.882 101.417 151.949 101.282C152.017 101.15 152.083 101.038 152.159 100.919C152.461 100.464 152.842 100.009 153.393 99.7647C153.528 99.7053 153.672 99.6619 153.818 99.6368C153.967 99.6208 154.115 99.6139 154.259 99.6368C154.547 99.687 154.808 99.8127 155 100.014L154.956 100.066C154.485 99.8561 153.98 99.9224 153.621 100.188C153.439 100.316 153.274 100.475 153.132 100.665C152.988 100.85 152.858 101.054 152.748 101.268C152.691 101.371 152.632 101.488 152.586 101.586C152.543 101.684 152.504 101.785 152.477 101.89C152.419 102.105 152.394 102.304 152.403 102.548L152.422 104.105L152.486 107.213C152.495 108.25 152.515 109.285 152.515 110.323L152.447 110.328L152.449 110.33Z" fill="white"/>
<path d="M153.462 126.058C153.387 125.633 153.368 125.205 153.384 124.776C153.398 124.346 153.448 123.914 153.533 123.487C153.624 123.059 153.75 122.639 153.912 122.228C154.081 121.818 154.289 121.423 154.531 121.048C155.009 120.301 155.59 119.549 156.387 119.115C157.173 118.676 158.046 118.409 158.944 118.441L158.981 118.548C158.291 119.113 157.633 119.565 157.027 120.061L156.12 120.783C155.811 121.019 155.519 121.284 155.27 121.588C154.769 122.191 154.367 122.89 154.081 123.647C153.786 124.401 153.615 125.221 153.574 126.049L153.46 126.06L153.462 126.058Z" fill="white"/>
<path d="M150.391 101.566C150.069 101.71 149.811 101.959 149.619 102.249C149.429 102.541 149.292 102.868 149.189 103.202C148.979 103.874 148.926 104.585 148.839 105.298C148.668 106.719 148.51 108.145 148.355 109.569C148.195 110.993 148.099 112.426 147.859 113.84C147.624 115.255 147.356 116.667 146.963 118.059L146.895 118.05C146.913 116.605 147.034 115.177 147.178 113.751C147.317 112.325 147.592 110.915 147.811 109.498C148.035 108.081 148.261 106.664 148.501 105.25C148.565 104.895 148.622 104.546 148.693 104.187C148.769 103.83 148.86 103.476 148.988 103.136C149.116 102.795 149.278 102.461 149.5 102.164C149.721 101.872 150.019 101.625 150.366 101.502L150.391 101.566Z" fill="white"/>
<path d="M91.9497 201.321C92.7335 200.45 92.7061 198.972 91.6777 198.275C90.8207 197.694 89.6506 197.973 89.269 196.746C88.7936 195.219 90.631 194.159 91.8377 195.094C92.1828 195.361 92.6718 194.879 92.3222 194.609C91.0218 193.601 88.853 194.051 88.5377 195.832C88.4028 196.595 88.6793 197.434 89.237 197.975C89.5798 198.307 89.9683 198.439 90.4185 198.567C90.887 198.702 91.2961 198.766 91.5863 199.205C91.936 199.735 91.8994 200.35 91.4629 200.834C91.1681 201.161 91.6526 201.648 91.9474 201.319L91.9497 201.321Z" fill="white"/>
<path d="M160.282 237.462C161.066 236.591 161.038 235.112 160.01 234.415C159.153 233.835 157.983 234.114 157.601 232.886C157.126 231.36 158.963 230.299 160.17 231.234C160.515 231.501 161.004 231.019 160.654 230.75C159.354 229.742 157.185 230.192 156.87 231.972C156.735 232.736 157.011 233.577 157.569 234.116C157.912 234.447 158.3 234.58 158.751 234.708C159.219 234.843 159.628 234.907 159.918 235.345C160.268 235.876 160.231 236.49 159.795 236.975C159.5 237.302 159.985 237.788 160.279 237.459L160.282 237.462Z" fill="white"/>
<path d="M263.036 212.348C263.819 211.477 263.792 209.999 262.764 209.301C261.907 208.721 260.737 209 260.355 207.773C259.88 206.246 261.717 205.186 262.924 206.12C263.269 206.388 263.758 205.905 263.408 205.636C262.108 204.628 259.939 205.078 259.624 206.858C259.489 207.622 259.765 208.463 260.323 209.002C260.666 209.333 261.054 209.466 261.504 209.594C261.973 209.729 262.382 209.793 262.672 210.232C263.022 210.762 262.985 211.377 262.549 211.861C262.254 212.188 262.739 212.675 263.033 212.346L263.036 212.348Z" fill="white"/>
<path d="M205.904 195.496C204.795 195.425 203.748 196.264 203.71 197.415C203.68 198.304 204.496 198.985 204.228 199.9C203.682 201.78 201.129 201.23 201.1 199.363C201.093 198.921 200.407 198.921 200.414 199.363C200.439 201.031 202.215 202.443 203.794 201.509C204.427 201.134 204.877 200.444 204.962 199.712C205.005 199.351 204.951 199.036 204.839 198.695C204.626 198.053 204.164 197.662 204.535 196.908C204.791 196.389 205.344 196.145 205.899 196.181C206.34 196.209 206.338 195.523 205.899 195.496H205.904Z" fill="white"/>
<path d="M280.918 183.015C279.846 182.728 278.651 183.31 278.372 184.435C278.148 185.335 278.854 186.197 278.345 187.07C277.369 188.74 275.079 187.632 275.419 185.877C275.504 185.445 274.841 185.262 274.759 185.694C274.462 187.23 275.705 188.93 277.387 188.56C278.159 188.388 278.831 187.796 279.11 187.054C279.245 186.695 279.277 186.334 279.229 185.957C279.156 185.374 278.82 184.94 279.154 184.304C279.451 183.738 280.15 183.518 280.737 183.676C281.165 183.79 281.345 183.13 280.92 183.015H280.918Z" fill="white"/>
<path d="M125.073 233.01C126.138 233.325 127.344 232.758 127.648 231.641C127.891 230.747 127.207 229.87 127.742 229.008C128.766 227.36 131.01 228.56 130.631 230.286C130.537 230.715 131.197 230.9 131.291 230.468C131.627 228.935 130.407 227.219 128.722 227.55C127.945 227.703 127.264 228.281 126.97 229.02C126.826 229.378 126.789 229.733 126.828 230.114C126.887 230.697 127.21 231.143 126.858 231.769C126.542 232.324 125.834 232.521 125.256 232.349C124.831 232.224 124.65 232.886 125.073 233.01Z" fill="white"/>
<path d="M116.677 189.476C115.569 190.466 116.03 192.36 117.57 192.555C118.306 192.648 118.976 192.326 119.415 191.741C119.716 191.339 119.842 190.843 120.112 190.425C120.489 189.84 121.028 189.328 121.819 190.354C122.109 190.731 122.063 191.464 122.029 191.908C121.995 192.347 122.681 192.347 122.715 191.908C122.811 190.674 122.191 188.669 120.528 189.17C119.968 189.339 119.655 189.828 119.396 190.315C119.207 190.674 119.042 191.268 118.709 191.528C117.511 192.461 116.016 190.987 117.166 189.961C117.495 189.666 117.011 189.184 116.681 189.476H116.677Z" fill="white"/>
<path d="M142.143 209.786C142.134 211.342 143.985 212.268 145.137 211.102C145.713 210.52 145.804 209.749 145.575 208.991C145.432 208.508 145.013 207.944 145.043 207.425C145.146 205.716 147.013 206.906 147.52 207.448C147.822 207.77 148.306 207.286 148.005 206.964C147.187 206.088 145.56 205.24 144.634 206.509C144.227 207.066 144.355 207.731 144.579 208.335C144.785 208.883 145.157 209.475 144.972 210.09C144.607 211.306 142.819 211.093 142.826 209.786C142.829 209.345 142.143 209.345 142.141 209.786H142.143Z" fill="white"/>
<path d="M227.143 221.606C227.134 223.162 228.985 224.088 230.137 222.922C230.713 222.34 230.804 221.569 230.575 220.811C230.432 220.328 230.013 219.764 230.043 219.245C230.146 217.536 232.013 218.726 232.52 219.268C232.822 219.59 233.306 219.106 233.005 218.784C232.187 217.908 230.56 217.06 229.634 218.329C229.227 218.886 229.355 219.551 229.579 220.155C229.785 220.703 230.157 221.295 229.972 221.91C229.607 223.126 227.819 222.913 227.826 221.606C227.829 221.165 227.143 221.165 227.141 221.606H227.143Z" fill="white"/>
<path d="M181.006 222.785C179.463 222.886 178.618 224.755 179.859 225.847C180.476 226.389 181.246 226.439 181.991 226.163C182.427 225.998 182.875 225.624 183.339 225.557C184.276 225.422 184.617 226.193 184.418 226.89C184.297 227.308 183.995 227.66 183.707 227.971C183.408 228.293 183.89 228.78 184.192 228.455C185.014 227.571 185.755 225.918 184.448 225.054C183.938 224.716 183.346 224.812 182.811 225.025C182.21 225.262 181.591 225.777 180.903 225.637C179.71 225.395 179.646 223.56 181.008 223.471C181.447 223.443 181.449 222.758 181.008 222.785H181.006Z" fill="white"/>
<path d="M220.807 182.878C219.264 182.979 218.418 184.848 219.659 185.941C220.276 186.482 221.047 186.533 221.792 186.256C222.228 186.092 222.676 185.717 223.14 185.65C224.077 185.516 224.417 186.286 224.219 186.983C224.098 187.401 223.796 187.753 223.508 188.064C223.209 188.386 223.691 188.873 223.992 188.548C224.815 187.664 225.556 186.012 224.248 185.148C223.739 184.809 223.147 184.905 222.612 185.118C222.011 185.356 221.392 185.87 220.704 185.73C219.511 185.488 219.447 183.653 220.809 183.564C221.248 183.537 221.25 182.851 220.809 182.878H220.807Z" fill="white"/>
<path d="M241.335 199.347C240.108 200.185 240.238 202.121 241.776 202.532C242.473 202.717 243.189 202.512 243.694 202.002C243.97 201.721 244.158 201.367 244.379 201.047C244.674 200.62 245.282 199.655 246.023 200.521C246.475 201.049 246.434 201.806 246.304 202.425C246.212 202.855 246.875 203.04 246.964 202.608C247.22 201.39 246.907 199.283 245.159 199.566C244.567 199.662 244.185 200.124 243.863 200.59C243.548 201.047 243.266 201.673 242.697 201.856C241.548 202.226 240.547 200.718 241.683 199.941C242.044 199.694 241.701 199.1 241.338 199.349L241.335 199.347Z" fill="white"/>
<path d="M173.858 199.559C173.849 201.115 175.7 202.041 176.852 200.875C177.427 200.293 177.519 199.522 177.29 198.764C177.146 198.282 176.728 197.717 176.758 197.198C176.861 195.489 178.728 196.679 179.235 197.221C179.537 197.543 180.021 197.059 179.72 196.737C178.902 195.861 177.274 195.013 176.349 196.282C175.942 196.839 176.07 197.504 176.294 198.108C176.5 198.656 176.872 199.248 176.687 199.863C176.321 201.079 174.534 200.866 174.541 199.559C174.543 199.118 173.858 199.118 173.855 199.559H173.858Z" fill="white"/>
<path d="M254.311 179.857C254.302 181.413 256.153 182.339 257.305 181.173C257.881 180.591 257.972 179.821 257.743 179.062C257.6 178.58 257.181 178.015 257.211 177.496C257.314 175.787 259.181 176.978 259.688 177.519C259.99 177.841 260.474 177.357 260.173 177.035C259.355 176.159 257.727 175.312 256.802 176.58C256.395 177.138 256.523 177.803 256.747 178.406C256.953 178.954 257.325 179.546 257.14 180.161C256.774 181.377 254.987 181.164 254.994 179.857C254.996 179.416 254.311 179.416 254.309 179.857H254.311Z" fill="white"/>
<path d="M114.693 210.165C113.58 209.217 111.745 209.809 111.727 211.39C111.72 212.122 112.12 212.768 112.744 213.132C113.123 213.353 113.566 213.436 113.973 213.589C114.449 213.765 115.39 214.103 114.784 214.992C114.394 215.568 113.651 215.726 113.018 215.762C112.579 215.787 112.577 216.473 113.018 216.448C114.257 216.377 116.163 215.559 115.497 213.95C115.299 213.472 114.864 213.205 114.405 213.017C113.987 212.848 113.475 212.78 113.089 212.54C111.761 211.713 112.938 209.567 114.209 210.65C114.542 210.936 115.029 210.451 114.693 210.165Z" fill="white"/>
<path d="M273.441 210.17L274.789 210.387C275.164 210.449 275.505 210.449 275.845 210.25C276.129 210.083 276.401 209.756 276.476 209.43C276.627 208.771 276.275 207.864 275.518 207.743C275.068 207.67 274.62 207.599 274.17 207.526C273.795 207.466 273.455 207.464 273.114 207.663C272.831 207.83 272.559 208.157 272.483 208.483C272.333 209.142 272.685 210.049 273.441 210.17Z" fill="#00CCBE"/>
<path d="M270.634 210.497C270.762 211.162 270.947 211.809 271.196 212.439C271.457 213.104 272.126 213.641 272.883 213.397C273.53 213.187 274.122 212.426 273.84 211.71C273.594 211.079 273.406 210.433 273.278 209.768C273.143 209.062 272.257 208.595 271.592 208.81C270.84 209.055 270.488 209.74 270.634 210.497Z" fill="#00CCBE"/>
<path d="M86.4708 182.938C85.5406 181.601 84.4025 180.49 83.0245 179.617C81.5298 178.669 80.1518 181.041 81.6395 181.985C82.604 182.595 83.4472 183.383 84.1009 184.32C84.5236 184.928 85.3007 185.207 85.9771 184.812C86.5782 184.46 86.8935 183.546 86.4685 182.935L86.4708 182.938Z" fill="#00CCBE"/>
<path d="M85.9484 180.774C85.9438 179.761 85.8501 178.767 85.7153 177.766C85.6147 177.032 84.6754 176.63 84.0287 176.808C83.2357 177.026 82.9706 177.759 83.0711 178.495C83.174 179.249 83.2037 180.015 83.2082 180.774C83.2151 182.538 85.9575 182.542 85.9507 180.774H85.9484Z" fill="#00CCBE"/>
<path d="M191.806 190.452C191.136 189.892 190.375 189.113 189.943 188.539C189.513 187.968 188.739 187.614 188.067 188.048C187.502 188.413 187.114 189.309 187.575 189.924C188.256 190.831 188.997 191.663 189.865 192.392C190.414 192.852 191.273 192.97 191.806 192.392C192.272 191.885 192.393 190.946 191.806 190.452Z" fill="#00CCBE"/>
<path d="M192.053 191.336C192.382 190.507 192.682 189.666 192.954 188.816C193.18 188.11 192.689 187.319 191.996 187.129C191.256 186.926 190.536 187.378 190.31 188.087C190.038 188.937 189.738 189.778 189.409 190.607C189.137 191.295 189.709 192.113 190.367 192.294C191.146 192.509 191.779 192.027 192.053 191.336Z" fill="#00CCBE"/>
<path d="M155.62 101.531C155.727 102.562 155.818 103.595 155.917 104.626L156.179 107.722C156.262 108.755 156.406 109.784 156.408 110.821C156.415 111.856 156.397 112.894 156.259 113.938L156.191 113.943C155.949 112.919 155.823 111.888 155.722 110.858C155.62 109.827 155.654 108.787 155.631 107.752L155.574 104.646C155.567 103.611 155.549 102.573 155.551 101.538L155.62 101.534V101.531Z" fill="white"/>
<path d="M220.354 115.344L220.125 114.697C221.526 114.201 222.975 113.794 224.433 113.486L224.575 114.158C223.146 114.46 221.727 114.859 220.354 115.344Z" fill="#FFB149"/>
<path d="M218.857 117.586L218.629 116.939C220.032 116.443 221.481 116.036 222.937 115.728L223.078 116.4C221.652 116.701 220.233 117.099 218.857 117.586Z" fill="#FFB149"/>
<path d="M190.088 123.29L189.859 122.643C191.263 122.147 192.711 121.741 194.167 121.432L194.309 122.104C192.883 122.406 191.464 122.803 190.088 123.29Z" fill="#FFB149"/>
<path d="M188.592 125.532L188.363 124.885C189.766 124.389 191.215 123.983 192.671 123.674L192.813 124.346C191.387 124.648 189.968 125.045 188.592 125.532Z" fill="#FFB149"/>
<path d="M131.283 120.013L131.055 119.366C132.458 118.87 133.907 118.463 135.363 118.155L135.504 118.827C134.078 119.128 132.659 119.526 131.283 120.013Z" fill="#FFB149"/>
<path d="M129.787 122.255L129.559 121.608C130.96 121.112 132.408 120.705 133.866 120.397L134.008 121.069C132.58 121.37 131.161 121.77 129.787 122.255Z" fill="#FFB149"/>
<path d="M157.541 152.008L157.312 151.361C158.716 150.865 160.165 150.458 161.62 150.15L161.762 150.822C160.336 151.123 158.917 151.521 157.541 152.008Z" fill="#FFB149"/>
<path d="M156.049 154.25L155.82 153.603C157.224 153.107 158.672 152.7 160.128 152.392L160.27 153.064C158.844 153.365 157.425 153.763 156.049 154.25Z" fill="#FFB149"/>
<path d="M199.178 138.307L198.949 137.66C200.35 137.164 201.799 136.758 203.257 136.449L203.399 137.121C201.97 137.423 200.551 137.823 199.178 138.307Z" fill="#FFB149"/>
<path d="M197.682 140.551L197.453 139.905C198.854 139.409 200.303 139.002 201.761 138.693L201.903 139.365C200.474 139.667 199.055 140.067 197.682 140.551Z" fill="#FFB149"/>
<path d="M202.098 210.113C202.69 208.559 203.695 207.142 205.062 206.136C205.75 205.645 206.522 205.254 207.349 205.039C208.174 204.818 209.038 204.749 209.891 204.808C210.743 204.872 211.577 205.06 212.382 205.32C213.188 205.572 213.986 205.937 214.699 206.427C215.06 206.666 215.392 206.95 215.709 207.247C216.015 207.555 216.31 207.878 216.564 208.23C217.085 208.927 217.489 209.704 217.791 210.51C218.1 211.315 218.31 212.151 218.447 212.995C218.591 213.838 218.66 214.688 218.682 215.536C218.698 216.386 218.657 217.234 218.564 218.075C218.538 218.285 218.513 218.495 218.481 218.703L218.399 219.302C218.349 219.698 218.312 220.093 218.292 220.491C218.198 222.079 218.353 223.683 218.762 225.233C219.185 226.78 219.823 228.293 220.886 229.554L220.806 229.637C220.145 229.12 219.592 228.462 219.128 227.756C218.666 227.043 218.294 226.275 217.997 225.479C217.695 224.682 217.483 223.852 217.339 223.009C217.197 222.166 217.144 221.309 217.149 220.452C217.158 220.024 217.186 219.597 217.227 219.17L217.38 217.94C217.471 217.14 217.533 216.338 217.549 215.536C217.588 213.936 217.437 212.318 216.93 210.819C216.68 210.069 216.335 209.356 215.89 208.712C215.673 208.385 215.417 208.09 215.152 207.802C214.875 207.528 214.587 207.261 214.267 207.032C213.634 206.566 212.928 206.207 212.167 205.942C211.41 205.668 210.631 205.464 209.836 205.378C209.043 205.286 208.236 205.316 207.459 205.487C206.678 205.652 205.937 205.985 205.261 206.424C204.589 206.872 203.992 207.432 203.48 208.065C202.968 208.698 202.527 209.4 202.205 210.149L202.098 210.11V210.113Z" fill="white"/>
</svg>
